# xmcd CD database file
#
# Track frame offsets:
#	150
#	9562
#	17871
#	25903
#	32537
#	38881
#	49032
#	56444
#	65700
#	71952
#	79406
#	92962
#	109976
#	127508
#	141412
#	158332
#	172115
#	187184
#	204175
#	222717
#	238203
#	253080
#	269164
#	294683
#	309372
#
# Disc length: 4285 seconds
#
# Revision: 0
# Processed by: cddbd v1.5.2PL0 Copyright (c) Steve Scherf et al.
# Submitted via: CDex 1.51
#
DISCID=7f10bb19
DTITLE=Mose Allison - Back Country Suite/Local Color
DYEAR=1900
DGENRE=Jazz
TTITLE0=New Ground
TTITLE1=Train
TTITLE2=Warm Night
TTITLE3=Blues
TTITLE4=Saturday
TTITLE5=Scamper
TTITLE6=January
TTITLE7=Promised Land
TTITLE8=Spring Song
TTITLE9=Highway
TTITLE10=Blueberry Hill
TTITLE11=You Won't Let Me Go
TTITLE12=I Thought About You
TTITLE13=One Room Country Shack
TTITLE14=In Salah
TTITLE15=Carnival [*]
TTITLE16=Parchman Farm [*]
TTITLE17=Crepuscular Air [*]
TTITLE18=Mojo Woman [*]
TTITLE19=Town [*]
TTITLE20=Trouble in Mind [*]
TTITLE21=Lost Mind [*]
TTITLE22=I'll Never Be Free [*]
TTITLE23=Don't Ever Say Goodbye [*]
TTITLE24=Ain't You a Mess [*]
EXTD=
EXTT0=
EXTT1=
EXTT2=
EXTT3=
EXTT4=
EXTT5=
EXTT6=
EXTT7=
EXTT8=
EXTT9=
EXTT10=
EXTT11=
EXTT12=
EXTT13=
EXTT14=
EXTT15=
EXTT16=
EXTT17=
EXTT18=
EXTT19=
EXTT20=
EXTT21=
EXTT22=
EXTT23=
EXTT24=
PLAYORDER=
